ETBookOT-Semibold.ufo
<glyph name="quotedbl" format="1">
  <advance width="425"/>
  <unicode hex="0022"/>
  <outline>
    <contour>
      <point x="352" y="519" type="curve" smooth="yes"/>
      <point x="324" y="371" type="line" smooth="yes"/>
      <point x="317" y="348"/>
      <point x="283" y="360"/>
      <point x="281" y="371" type="curve" smooth="yes"/>
      <point x="255" y="518" type="line" smooth="yes"/>
      <point x="250" y="544"/>
      <point x="242" y="570"/>
      <point x="242" y="597" type="curve" smooth="yes"/>
      <point x="242" y="646"/>
      <point x="260" y="674"/>
      <point x="303" y="674" type="curve" smooth="yes"/>
      <point x="340" y="674"/>
      <point x="363" y="647"/>
      <point x="363" y="608" type="curve" smooth="yes"/>
      <point x="363" y="581"/>
      <point x="357" y="544"/>
    </contour>
    <contour>
      <point x="180" y="564" type="curve" smooth="yes"/>
      <point x="178" y="549"/>
      <point x="175" y="534"/>
      <point x="172" y="520" type="curve" smooth="yes"/>
      <point x="144" y="370" type="line" smooth="yes"/>
      <point x="140" y="365"/>
      <point x="134" y="360"/>
      <point x="123" y="361" type="curve" smooth="yes"/>
      <point x="113" y="362"/>
      <point x="103" y="370"/>
      <point x="101" y="383" type="curve" smooth="yes"/>
      <point x="77" y="521" type="line" smooth="yes"/>
      <point x="72" y="548"/>
      <point x="66" y="575"/>
      <point x="66" y="603" type="curve" smooth="yes"/>
      <point x="66" y="647"/>
      <point x="84" y="674"/>
      <point x="123" y="674" type="curve" smooth="yes"/>
      <point x="161" y="674"/>
      <point x="184" y="647"/>
      <point x="184" y="608" type="curve" smooth="yes"/>
      <point x="184" y="593"/>
      <point x="182" y="578"/>
    </contour>
  </outline>
</glyph>
<glyph name="plus" format="1">
  <advance width="698"/>
  <unicode hex="002B"/>
  <outline>
    <contour>
      <point x="599" y="300" type="curve" smooth="yes"/>
      <point x="397" y="300" type="line" smooth="yes"/>
      <point x="389" y="300"/>
      <point x="388" y="294"/>
      <point x="388" y="285" type="curve" smooth="yes"/>
      <point x="388" y="75" type="line" smooth="yes"/>
      <point x="388" y="52"/>
      <point x="384" y="52"/>
      <point x="363" y="52" type="curve" smooth="yes"/>
      <point x="350" y="52"/>
      <point x="347" y="51"/>
      <point x="332" y="52" type="curve" smooth="yes"/>
      <point x="311" y="52"/>
      <point x="312" y="59"/>
      <point x="312" y="75" type="curve" smooth="yes"/>
      <point x="312" y="293" type="line" smooth="yes"/>
      <point x="312" y="299"/>
      <point x="312" y="300"/>
      <point x="304" y="300" type="curve" smooth="yes"/>
      <point x="92" y="300" type="line" smooth="yes"/>
      <point x="74" y="300"/>
      <point x="71" y="302"/>
      <point x="71" y="323" type="curve" smooth="yes"/>
      <point x="71" y="353" type="line" smooth="yes"/>
      <point x="71" y="371"/>
      <point x="68" y="376"/>
      <point x="93" y="376" type="curve" smooth="yes"/>
      <point x="303" y="376" type="line" smooth="yes"/>
      <point x="311" y="376"/>
      <point x="312" y="377"/>
      <point x="312" y="384" type="curve" smooth="yes"/>
      <point x="312" y="589" type="line" smooth="yes"/>
      <point x="312" y="604"/>
      <point x="307" y="620"/>
      <point x="330" y="620" type="curve" smooth="yes"/>
      <point x="369" y="620" type="line" smooth="yes"/>
      <point x="385" y="620"/>
      <point x="388" y="615"/>
      <point x="388" y="593" type="curve" smooth="yes"/>
      <point x="388" y="380" type="line" smooth="yes"/>
      <point x="389" y="376"/>
      <point x="397" y="376"/>
      <point x="402" y="376" type="curve" smooth="yes"/>
      <point x="606" y="376" type="line" smooth="yes"/>
      <point x="627" y="376"/>
      <point x="628" y="369"/>
      <point x="628" y="354" type="curve" smooth="yes"/>
      <point x="628" y="323" type="line" smooth="yes"/>
      <point x="628" y="301"/>
      <point x="617" y="300"/>
    </contour>
  </outline>
</glyph>
<glyph name="five" format="1">
  <advance width="437"/>
  <unicode hex="0035"/>
  <outline>
    <contour>
      <point x="334" y="365" type="curve" smooth="yes"/>
      <point x="327" y="358"/>
      <point x="323" y="357"/>
      <point x="313" y="357" type="curve" smooth="yes"/>
      <point x="222" y="369" type="line" smooth="yes"/>
      <point x="215" y="369"/>
      <point x="214" y="370"/>
      <point x="210" y="364" type="curve" smooth="yes"/>
      <point x="172" y="316" type="line" smooth="yes"/>
      <point x="162" y="305"/>
      <point x="160" y="305"/>
      <point x="172" y="298" type="curve" smooth="yes"/>
      <point x="211" y="273"/>
      <point x="230" y="257"/>
      <point x="263" y="225" type="curve" smooth="yes"/>
      <point x="320" y="171"/>
      <point x="358" y="104"/>
      <point x="358" y="42" type="curve" smooth="yes"/>
      <point x="358" y="-26"/>
      <point x="317" y="-88"/>
      <point x="253" y="-130" type="curve" smooth="yes"/>
      <point x="206" y="-161"/>
      <point x="150" y="-177"/>
      <point x="99" y="-177" type="curve" smooth="yes"/>
      <point x="68" y="-177"/>
      <point x="43" y="-161"/>
      <point x="43" y="-131" type="curve" smooth="yes"/>
      <point x="43" y="-108"/>
      <point x="60" y="-88"/>
      <point x="83" y="-88" type="curve" smooth="yes"/>
      <point x="90" y="-88"/>
      <point x="100" y="-90"/>
      <point x="110" y="-94" type="curve" smooth="yes"/>
      <point x="152" y="-109"/>
      <point x="168" y="-113"/>
      <point x="179" y="-113" type="curve" smooth="yes"/>
      <point x="229" y="-113"/>
      <point x="276" y="-58"/>
      <point x="276" y="11" type="curve" smooth="yes"/>
      <point x="276" y="114"/>
      <point x="165" y="193"/>
      <point x="82" y="245" type="curve" smooth="yes"/>
      <point x="69" y="253"/>
      <point x="77" y="269"/>
      <point x="80" y="273" type="curve" smooth="yes"/>
      <point x="112" y="318"/>
      <point x="180" y="405"/>
      <point x="218" y="446" type="curve" smooth="yes"/>
      <point x="224" y="453"/>
      <point x="227" y="455"/>
      <point x="236" y="454" type="curve" smooth="yes"/>
      <point x="346" y="441" type="line" smooth="yes"/>
      <point x="363" y="439"/>
      <point x="372" y="435"/>
      <point x="367" y="418" type="curve" smooth="yes"/>
      <point x="364" y="404"/>
      <point x="339" y="370"/>
    </contour>
  </outline>
</glyph>
<glyph name="Z" format="1">
  <advance width="705"/>
  <unicode hex="005A"/>
  <outline>
    <contour>
      <point x="128" y="492" type="line"/>
      <point x="127" y="482"/>
      <point x="94" y="477"/>
      <point x="86" y="496" type="curve"/>
      <point x="86" y="533"/>
      <point x="87" y="602"/>
      <point x="91" y="636" type="curve" smooth="yes"/>
      <point x="94" y="645"/>
      <point x="109" y="649"/>
      <point x="118" y="650" type="curve" smooth="yes"/>
      <point x="585" y="650" type="line" smooth="yes"/>
      <point x="606" y="650"/>
      <point x="627" y="638"/>
      <point x="610" y="611" type="curve" smooth="yes"/>
      <point x="198" y="72" type="line" smooth="yes"/>
      <point x="184" y="58"/>
      <point x="221" y="58"/>
      <point x="227" y="58" type="curve" smooth="yes"/>
      <point x="457" y="58" type="line" smooth="yes"/>
      <point x="565" y="58"/>
      <point x="581" y="98"/>
      <point x="591" y="196" type="curve"/>
      <point x="600" y="208"/>
      <point x="637" y="209"/>
      <point x="637" y="196" type="curve" smooth="yes"/>
      <point x="635" y="147"/>
      <point x="628" y="60"/>
      <point x="623" y="14" type="curve" smooth="yes"/>
      <point x="621" y="2"/>
      <point x="595" y="-2"/>
      <point x="588" y="-2" type="curve" smooth="yes"/>
      <point x="518" y="-2"/>
      <point x="388" y="-3"/>
      <point x="276" y="-3" type="curve" smooth="yes"/>
      <point x="167" y="-3"/>
      <point x="73" y="-2"/>
      <point x="61" y="-2" type="curve" smooth="yes"/>
      <point x="50" y="-2"/>
      <point x="34" y="3"/>
      <point x="36" y="21" type="curve" smooth="yes"/>
      <point x="36" y="26"/>
      <point x="39" y="34"/>
      <point x="42" y="38" type="curve" smooth="yes"/>
      <point x="449" y="575" type="line" smooth="yes"/>
      <point x="454" y="581"/>
      <point x="451" y="592"/>
      <point x="448" y="592" type="curve" smooth="yes"/>
      <point x="246" y="592" type="line" smooth="yes"/>
      <point x="151" y="592"/>
      <point x="140" y="587"/>
      <point x="128" y="492" type="curve"/>
    </contour>
  </outline>
</glyph>
<glyph name="bracketleft" format="1">
  <advance width="337"/>
  <unicode hex="005B"/>
  <outline>
    <contour>
      <point x="249" y="-229" type="curve" smooth="yes"/>
      <point x="218" y="-231"/>
      <point x="162" y="-230"/>
      <point x="131" y="-229" type="curve" smooth="yes"/>
      <point x="115" y="-228"/>
      <point x="104" y="-222"/>
      <point x="104" y="-204" type="curve" smooth="yes"/>
      <point x="101" y="12"/>
      <point x="101" y="444"/>
      <point x="104" y="659" type="curve" smooth="yes"/>
      <point x="104" y="680"/>
      <point x="110" y="688"/>
      <point x="129" y="690" type="curve" smooth="yes"/>
      <point x="160" y="693"/>
      <point x="218" y="690"/>
      <point x="250" y="690" type="curve" smooth="yes"/>
      <point x="255" y="690" type="line" smooth="yes"/>
      <point x="262" y="690"/>
      <point x="272" y="688"/>
      <point x="272" y="678" type="curve" smooth="yes"/>
      <point x="272" y="663" type="line" smooth="yes"/>
      <point x="272" y="654"/>
      <point x="268" y="650"/>
      <point x="260" y="649" type="curve" smooth="yes"/>
      <point x="246" y="649"/>
      <point x="209" y="648"/>
      <point x="198" y="641" type="curve" smooth="yes"/>
      <point x="193" y="638"/>
      <point x="190" y="633"/>
      <point x="189" y="616" type="curve" smooth="yes"/>
      <point x="188" y="406"/>
      <point x="188" y="37"/>
      <point x="189" y="-157" type="curve" smooth="yes"/>
      <point x="190" y="-181"/>
      <point x="194" y="-182"/>
      <point x="234" y="-186" type="curve" smooth="yes"/>
      <point x="257" y="-188" type="line" smooth="yes"/>
      <point x="267" y="-188"/>
      <point x="272" y="-191"/>
      <point x="272" y="-204" type="curve" smooth="yes"/>
      <point x="272" y="-215" type="line" smooth="yes"/>
      <point x="272" y="-225"/>
      <point x="258" y="-229"/>
    </contour>
  </outline>
</glyph>
<glyph name="backslash" format="1">
  <advance width="479"/>
  <unicode hex="005C"/>
  <outline>
    <contour>
      <point x="423" y="-14" type="curve" smooth="yes"/>
      <point x="383" y="-19" type="line" smooth="yes"/>
      <point x="366" y="-21"/>
      <point x="362" y="-13"/>
      <point x="356" y="0" type="curve" smooth="yes"/>
      <point x="41" y="651" type="line" smooth="yes"/>
      <point x="32" y="669"/>
      <point x="58" y="674"/>
      <point x="74" y="674" type="curve" smooth="yes"/>
      <point x="94" y="674" type="line" smooth="yes"/>
      <point x="112" y="674"/>
      <point x="115" y="676"/>
      <point x="125" y="656" type="curve" smooth="yes"/>
      <point x="435" y="16" type="line" smooth="yes"/>
      <point x="441" y="6"/>
      <point x="447" y="-11"/>
    </contour>
  </outline>
</glyph>
<glyph name="grave" format="1">
  <advance width="348"/>
  <unicode hex="0060"/>
  <outline>
    <contour>
      <point x="197" y="482" type="curve" smooth="yes"/>
      <point x="166" y="521"/>
      <point x="112" y="587"/>
      <point x="71" y="630" type="curve" smooth="yes"/>
      <point x="61" y="642"/>
      <point x="76" y="657"/>
      <point x="88" y="657" type="curve" smooth="yes"/>
      <point x="160" y="658" type="line" smooth="yes"/>
      <point x="169" y="658"/>
      <point x="176" y="658"/>
      <point x="183" y="648" type="curve" smooth="yes"/>
      <point x="199" y="605"/>
      <point x="219" y="534"/>
      <point x="229" y="493" type="curve" smooth="yes"/>
      <point x="230" y="475"/>
      <point x="207" y="472"/>
    </contour>
  </outline>
</glyph>
<glyph name="guillemotleft" format="1">
  <advance width="371"/>
  <unicode hex="00AB"/>
  <outline>
    <contour>
      <point x="125" y="232" type="line"/>
      <point x="217" y="48" type="line" smooth="yes"/>
      <point x="222" y="38"/>
      <point x="221" y="32"/>
      <point x="213" y="32" type="curve" smooth="yes"/>
      <point x="191" y="32" type="line" smooth="yes"/>
      <point x="185" y="32"/>
      <point x="183" y="33"/>
      <point x="176" y="43" type="curve" smooth="yes"/>
      <point x="37" y="221" type="line" smooth="yes"/>
      <point x="30" y="230"/>
      <point x="36" y="242"/>
      <point x="41" y="249" type="curve" smooth="yes"/>
      <point x="178" y="422" type="line" smooth="yes"/>
      <point x="185" y="431"/>
      <point x="183" y="429"/>
      <point x="190" y="429" type="curve" smooth="yes"/>
      <point x="212" y="429" type="line" smooth="yes"/>
      <point x="221" y="429"/>
      <point x="224" y="427"/>
      <point x="221" y="422" type="curve" smooth="yes"/>
    </contour>
    <contour>
      <point x="299" y="412" type="curve" smooth="yes"/>
      <point x="322" y="412" type="line" smooth="yes"/>
      <point x="330" y="412"/>
      <point x="330" y="406"/>
      <point x="327" y="399" type="curve" smooth="yes"/>
      <point x="265" y="232" type="line"/>
      <point x="326" y="64" type="line" smooth="yes"/>
      <point x="328" y="58"/>
      <point x="329" y="49"/>
      <point x="320" y="49" type="curve" smooth="yes"/>
      <point x="299" y="49" type="line" smooth="yes"/>
      <point x="291" y="49"/>
      <point x="294" y="47"/>
      <point x="287" y="57" type="curve" smooth="yes"/>
      <point x="176" y="223" type="line" smooth="yes"/>
      <point x="171" y="231"/>
      <point x="175" y="239"/>
      <point x="182" y="249" type="curve" smooth="yes"/>
      <point x="286" y="402" type="line" smooth="yes"/>
      <point x="294" y="414"/>
      <point x="291" y="412"/>
    </contour>
  </outline>
</glyph>
<glyph name="macron" format="1">
  <advance width="349"/>
  <unicode hex="00AF"/>
  <outline>
    <contour>
      <point x="313" y="500" type="curve" smooth="yes"/>
      <point x="31" y="500" type="line" smooth="yes"/>
      <point x="12" y="500"/>
      <point x="9" y="511"/>
      <point x="9" y="521" type="curve" smooth="yes"/>
      <point x="9" y="561" type="line" smooth="yes"/>
      <point x="9" y="572"/>
      <point x="24" y="575"/>
      <point x="35" y="575" type="curve" smooth="yes"/>
      <point x="44" y="575" type="line"/>
      <point x="316" y="575" type="line" smooth="yes"/>
      <point x="331" y="575"/>
      <point x="341" y="573"/>
      <point x="341" y="556" type="curve" smooth="yes"/>
      <point x="341" y="518" type="line" smooth="yes"/>
      <point x="341" y="502"/>
      <point x="328" y="500"/>
    </contour>
  </outline>
</glyph>
<glyph name="acute" format="1">
  <advance width="349"/>
  <unicode hex="00B4"/>
  <outline>
    <contour>
      <point x="287" y="643" type="curve" smooth="yes"/>
      <point x="287" y="642" type="line" smooth="yes"/>
      <point x="286" y="639"/>
      <point x="152" y="477"/>
      <point x="152" y="477" type="curve" smooth="yes"/>
      <point x="144" y="467"/>
      <point x="112" y="469"/>
      <point x="118" y="490" type="curve" smooth="yes"/>
      <point x="164" y="645" type="line" smooth="yes"/>
      <point x="169" y="655"/>
      <point x="178" y="661"/>
      <point x="187" y="661" type="curve" smooth="yes"/>
      <point x="269" y="661" type="line" smooth="yes"/>
      <point x="279" y="662"/>
      <point x="290" y="658"/>
      <point x="288" y="647" type="curve" smooth="yes"/>
      <point x="288" y="645"/>
      <point x="288" y="644"/>
    </contour>
  </outline>
</glyph>
<glyph name="onesuperior" format="1">
  <advance width="300"/>
  <unicode hex="00B9"/>
  <outline>
    <contour>
      <point x="124" y="556" type="line"/>
      <point x="107" y="545"/>
      <point x="88" y="538"/>
      <point x="69" y="531" type="curve"/>
      <point x="51" y="529"/>
      <point x="41" y="551"/>
      <point x="51" y="562" type="curve" smooth="yes"/>
      <point x="89" y="586"/>
      <point x="129" y="617"/>
      <point x="147" y="640" type="curve" smooth="yes"/>
      <point x="151" y="645"/>
      <point x="196" y="643"/>
      <point x="196" y="634" type="curve" smooth="yes"/>
      <point x="196" y="357" type="line" smooth="yes"/>
      <point x="196" y="347"/>
      <point x="194" y="345"/>
      <point x="204" y="344" type="curve" smooth="yes"/>
      <point x="209" y="344"/>
      <point x="226" y="342"/>
      <point x="230" y="343" type="curve" smooth="yes"/>
      <point x="248" y="340"/>
      <point x="247" y="343"/>
      <point x="248" y="320" type="curve" smooth="yes"/>
      <point x="248" y="309"/>
      <point x="241" y="299"/>
      <point x="236" y="299" type="curve" smooth="yes"/>
      <point x="187" y="301"/>
      <point x="132" y="301"/>
      <point x="84" y="299" type="curve" smooth="yes"/>
      <point x="77" y="299"/>
      <point x="71" y="310"/>
      <point x="71" y="320" type="curve" smooth="yes"/>
      <point x="71" y="329"/>
      <point x="76" y="340"/>
      <point x="83" y="341" type="curve" smooth="yes"/>
      <point x="110" y="344" type="line" smooth="yes"/>
      <point x="123" y="345"/>
      <point x="124" y="346"/>
      <point x="124" y="356" type="curve" smooth="yes"/>
    </contour>
  </outline>
</glyph>
<glyph name="threequarters" format="1">
  <advance width="715"/>
  <unicode hex="00BE"/>
  <outline>
    <contour>
      <point x="655" y="84" type="curve" smooth="yes"/>
      <point x="611" y="84" type="line" smooth="yes"/>
      <point x="606" y="83"/>
      <point x="606" y="79"/>
      <point x="606" y="67" type="curve" smooth="yes"/>
      <point x="607" y="0" type="line" smooth="yes"/>
      <point x="607" y="-12"/>
      <point x="608" y="-17"/>
      <point x="592" y="-17" type="curve" smooth="yes"/>
      <point x="591" y="-17"/>
      <point x="548" y="-19"/>
      <point x="543" y="-17" type="curve" smooth="yes"/>
      <point x="536" y="-16"/>
      <point x="532" y="-12"/>
      <point x="530" y="-4" type="curve" smooth="yes"/>
      <point x="531" y="65" type="line" smooth="yes"/>
      <point x="529" y="83"/>
      <point x="527" y="84"/>
      <point x="524" y="84" type="curve" smooth="yes"/>
      <point x="403" y="84" type="line" smooth="yes"/>
      <point x="386" y="84"/>
      <point x="383" y="91"/>
      <point x="384" y="100" type="curve"/>
      <point x="384" y="100" type="line"/>
      <point x="384" y="117" type="line"/>
      <point x="560" y="342" type="line"/>
      <point x="572" y="346"/>
      <point x="579" y="348"/>
      <point x="592" y="345" type="curve" smooth="yes"/>
      <point x="599" y="343"/>
      <point x="607" y="338"/>
      <point x="606" y="327" type="curve" smooth="yes"/>
      <point x="606" y="151" type="line" smooth="yes"/>
      <point x="606" y="144"/>
      <point x="609" y="141"/>
      <point x="610" y="141" type="curve" smooth="yes"/>
      <point x="650" y="141" type="line" smooth="yes"/>
      <point x="665" y="141"/>
      <point x="669" y="135"/>
      <point x="669" y="124" type="curve" smooth="yes"/>
      <point x="669" y="120"/>
      <point x="670" y="99"/>
      <point x="667" y="92" type="curve" smooth="yes"/>
      <point x="664" y="87"/>
      <point x="659" y="84"/>
    </contour>
    <contour>
      <point x="465" y="141" type="line"/>
      <point x="518" y="141" type="line" smooth="yes"/>
      <point x="523" y="141"/>
      <point x="530" y="141"/>
      <point x="530" y="146" type="curve" smooth="yes"/>
      <point x="530" y="228" type="line"/>
    </contour>
    <contour>
      <point x="96" y="-9" type="curve" smooth="yes"/>
      <point x="96" y="-10" type="line"/>
      <point x="562" y="652" type="line" smooth="yes"/>
      <point x="568" y="661"/>
      <point x="580" y="666"/>
      <point x="589" y="662" type="curve" smooth="yes"/>
      <point x="610" y="653" type="line" smooth="yes"/>
      <point x="623" y="647"/>
      <point x="627" y="641"/>
      <point x="621" y="633" type="curve" smooth="yes"/>
      <point x="158" y="-24" type="line" smooth="yes"/>
      <point x="150" y="-35"/>
      <point x="142" y="-41"/>
      <point x="131" y="-38" type="curve" smooth="yes"/>
      <point x="108" y="-31" type="line" smooth="yes"/>
      <point x="91" y="-26"/>
      <point x="93" y="-14"/>
    </contour>
    <contour>
      <point x="219" y="511" type="curve"/>
      <point x="260" y="496"/>
      <point x="285" y="463"/>
      <point x="285" y="418" type="curve" smooth="yes"/>
      <point x="285" y="344"/>
      <point x="205" y="286"/>
      <point x="122" y="286" type="curve" smooth="yes"/>
      <point x="77" y="286"/>
      <point x="17" y="302"/>
      <point x="17" y="338" type="curve" smooth="yes"/>
      <point x="17" y="357"/>
      <point x="36" y="372"/>
      <point x="55" y="372" type="curve" smooth="yes"/>
      <point x="89" y="372"/>
      <point x="107" y="332"/>
      <point x="141" y="332" type="curve" smooth="yes"/>
      <point x="173" y="332"/>
      <point x="205" y="365"/>
      <point x="205" y="406" type="curve" smooth="yes"/>
      <point x="205" y="438"/>
      <point x="184" y="459"/>
      <point x="162" y="459" type="curve" smooth="yes"/>
      <point x="153" y="459"/>
      <point x="145" y="458"/>
      <point x="131" y="448" type="curve" smooth="yes"/>
      <point x="118" y="439"/>
      <point x="115" y="438"/>
      <point x="107" y="446" type="curve" smooth="yes"/>
      <point x="98" y="455"/>
      <point x="88" y="472"/>
      <point x="103" y="482" type="curve" smooth="yes"/>
      <point x="155" y="515"/>
      <point x="175" y="542"/>
      <point x="175" y="556" type="curve" smooth="yes"/>
      <point x="175" y="571"/>
      <point x="162" y="585"/>
      <point x="138" y="585" type="curve" smooth="yes"/>
      <point x="117" y="585"/>
      <point x="92" y="571"/>
      <point x="75" y="537" type="curve"/>
      <point x="66" y="528"/>
      <point x="24" y="536"/>
      <point x="32" y="556" type="curve" smooth="yes"/>
      <point x="56" y="612"/>
      <point x="104" y="643"/>
      <point x="158" y="643" type="curve" smooth="yes"/>
      <point x="206" y="643"/>
      <point x="252" y="617"/>
      <point x="252" y="572" type="curve" smooth="yes"/>
      <point x="252" y="548"/>
      <point x="239" y="528"/>
    </contour>
  </outline>
</glyph>
<glyph name="Igrave" format="1">
  <advance width="363"/>
  <unicode hex="00CC"/>
  <outline>
    <contour>
      <point x="199" y="696" type="curve" smooth="yes"/>
      <point x="168" y="738"/>
      <point x="112" y="806"/>
      <point x="71" y="852" type="curve" smooth="yes"/>
      <point x="60" y="864"/>
      <point x="75" y="880"/>
      <point x="88" y="880" type="curve" smooth="yes"/>
      <point x="162" y="881" type="line" smooth="yes"/>
      <point x="171" y="881"/>
      <point x="178" y="881"/>
      <point x="185" y="870" type="curve" smooth="yes"/>
      <point x="202" y="825"/>
      <point x="223" y="751"/>
      <point x="233" y="708" type="curve" smooth="yes"/>
      <point x="234" y="689"/>
      <point x="210" y="686"/>
    </contour>
    <contour>
      <point x="307" y="610" type="curve" smooth="yes"/>
      <point x="303" y="610"/>
      <point x="298" y="609"/>
      <point x="294" y="609" type="curve" smooth="yes"/>
      <point x="240" y="609"/>
      <point x="233" y="603"/>
      <point x="233" y="513" type="curve" smooth="yes"/>
      <point x="233" y="103" type="line" smooth="yes"/>
      <point x="233" y="45"/>
      <point x="253" y="46"/>
      <point x="302" y="43" type="curve" smooth="yes"/>
      <point x="304" y="43"/>
      <point x="307" y="43"/>
      <point x="310" y="42" type="curve" smooth="yes"/>
      <point x="324" y="33"/>
      <point x="325" y="-4"/>
      <point x="307" y="-3" type="curve" smooth="yes"/>
      <point x="246" y="-1"/>
      <point x="129" y="-1"/>
      <point x="69" y="-3" type="curve" smooth="yes"/>
      <point x="60" y="-3"/>
      <point x="52" y="5"/>
      <point x="52" y="17" type="curve" smooth="yes"/>
      <point x="52" y="28"/>
      <point x="59" y="41"/>
      <point x="65" y="41" type="curve" smooth="yes"/>
      <point x="124" y="47"/>
      <point x="126" y="53"/>
      <point x="128" y="103" type="curve" smooth="yes"/>
      <point x="129" y="138" type="line"/>
      <point x="129" y="513" type="line"/>
      <point x="128" y="547" type="line" smooth="yes"/>
      <point x="127" y="596"/>
      <point x="121" y="606"/>
      <point x="72" y="611" type="curve" smooth="yes"/>
      <point x="46" y="614"/>
      <point x="53" y="649"/>
      <point x="66" y="653" type="curve" smooth="yes"/>
      <point x="67" y="654"/>
      <point x="69" y="654"/>
      <point x="71" y="654" type="curve" smooth="yes"/>
      <point x="76" y="654" type="line" smooth="yes"/>
      <point x="154" y="653"/>
      <point x="179" y="648"/>
      <point x="296" y="654" type="curve" smooth="yes"/>
      <point x="306" y="654"/>
      <point x="316" y="653"/>
      <point x="317" y="638" type="curve" smooth="yes"/>
      <point x="318" y="628"/>
      <point x="315" y="612"/>
    </contour>
  </outline>
</glyph>
<glyph name="Oslash" format="1">
  <advance width="851"/>
  <unicode hex="00D8"/>
  <outline>
    <contour>
      <point x="429" y="-22" type="curve" smooth="yes"/>
      <point x="356" y="-22"/>
      <point x="283" y="-3"/>
      <point x="221" y="31" type="curve" smooth="yes"/>
      <point x="214" y="35"/>
      <point x="203" y="31"/>
      <point x="196" y="22" type="curve" smooth="yes"/>
      <point x="126" y="-60" type="line" smooth="yes"/>
      <point x="112" y="-76"/>
      <point x="106" y="-73"/>
      <point x="93" y="-62" type="curve" smooth="yes"/>
      <point x="83" y="-54"/>
      <point x="79" y="-45"/>
      <point x="89" y="-34" type="curve" smooth="yes"/>
      <point x="159" y="45" type="line" smooth="yes"/>
      <point x="166" y="52"/>
      <point x="172" y="63"/>
      <point x="164" y="70" type="curve" smooth="yes"/>
      <point x="91" y="132"/>
      <point x="48" y="219"/>
      <point x="48" y="317" type="curve" smooth="yes"/>
      <point x="48" y="520"/>
      <point x="216" y="675"/>
      <point x="432" y="675" type="curve" smooth="yes"/>
      <point x="509" y="675"/>
      <point x="580" y="658"/>
      <point x="646" y="618" type="curve" smooth="yes"/>
      <point x="650" y="615"/>
      <point x="658" y="620"/>
      <point x="664" y="628" type="curve" smooth="yes"/>
      <point x="720" y="696" type="line" smooth="yes"/>
      <point x="724" y="700"/>
      <point x="734" y="706"/>
      <point x="745" y="698" type="curve" smooth="yes"/>
      <point x="753" y="692" type="line" smooth="yes"/>
      <point x="764" y="683"/>
      <point x="759" y="672"/>
      <point x="749" y="661" type="curve" smooth="yes"/>
      <point x="700" y="605" type="line" smooth="yes"/>
      <point x="696" y="600"/>
      <point x="688" y="589"/>
      <point x="695" y="583" type="curve" smooth="yes"/>
      <point x="770" y="518"/>
      <point x="807" y="441"/>
      <point x="807" y="342" type="curve" smooth="yes"/>
      <point x="807" y="136"/>
      <point x="641" y="-22"/>
    </contour>
    <contour>
      <point x="403" y="627" type="curve" smooth="yes"/>
      <point x="268" y="627"/>
      <point x="170" y="513"/>
      <point x="170" y="344" type="curve" smooth="yes"/>
      <point x="170" y="268"/>
      <point x="189" y="199"/>
      <point x="226" y="145" type="curve" smooth="yes"/>
      <point x="234" y="134"/>
      <point x="239" y="136"/>
      <point x="252" y="152" type="curve" smooth="yes"/>
      <point x="338" y="256"/>
      <point x="491" y="437"/>
      <point x="578" y="532" type="curve" smooth="yes"/>
      <point x="584" y="538"/>
      <point x="595" y="552"/>
      <point x="588" y="558" type="curve" smooth="yes"/>
      <point x="539" y="604"/>
      <point x="475" y="627"/>
    </contour>
    <contour>
      <point x="610" y="500" type="curve" smooth="yes"/>
      <point x="523" y="400"/>
      <point x="364" y="215"/>
      <point x="279" y="115" type="curve" smooth="yes"/>
      <point x="272" y="107"/>
      <point x="272" y="93"/>
      <point x="276" y="89" type="curve" smooth="yes"/>
      <point x="327" y="46"/>
      <point x="383" y="27"/>
      <point x="447" y="27" type="curve" smooth="yes"/>
      <point x="528" y="27"/>
      <point x="583" y="54"/>
      <point x="629" y="119" type="curve" smooth="yes"/>
      <point x="703" y="226"/>
      <point x="705" y="394"/>
      <point x="634" y="505" type="curve" smooth="yes"/>
      <point x="628" y="515"/>
      <point x="618" y="510"/>
    </contour>
  </outline>
</glyph>
<glyph name="Zcaron" format="1">
  <advance width="705"/>
  <unicode hex="017D"/>
  <outline>
    <contour>
      <point x="411" y="702" type="line" smooth="yes"/>
      <point x="405" y="697"/>
      <point x="402" y="695"/>
      <point x="393" y="695" type="curve" smooth="yes"/>
      <point x="318" y="695" type="line" smooth="yes"/>
      <point x="309" y="695"/>
      <point x="298" y="699"/>
      <point x="296" y="707" type="curve" smooth="yes"/>
      <point x="202" y="871" type="line" smooth="yes"/>
      <point x="198" y="878"/>
      <point x="203" y="883"/>
      <point x="206" y="884" type="curve" smooth="yes"/>
      <point x="208" y="886"/>
      <point x="212" y="886"/>
      <point x="216" y="886" type="curve" smooth="yes"/>
      <point x="223" y="886"/>
      <point x="232" y="884"/>
      <point x="236" y="880" type="curve" smooth="yes"/>
      <point x="364" y="779" type="line"/>
      <point x="472" y="880" type="line" smooth="yes"/>
      <point x="476" y="883"/>
      <point x="483" y="885"/>
      <point x="490" y="885" type="curve" smooth="yes"/>
      <point x="501" y="885"/>
      <point x="509" y="878"/>
      <point x="507" y="872" type="curve" smooth="yes"/>
    </contour>
    <contour>
      <point x="128" y="492" type="line"/>
      <point x="127" y="482"/>
      <point x="94" y="477"/>
      <point x="86" y="496" type="curve"/>
      <point x="86" y="533"/>
      <point x="87" y="602"/>
      <point x="91" y="636" type="curve" smooth="yes"/>
      <point x="94" y="645"/>
      <point x="109" y="649"/>
      <point x="118" y="650" type="curve" smooth="yes"/>
      <point x="585" y="650" type="line" smooth="yes"/>
      <point x="606" y="650"/>
      <point x="627" y="638"/>
      <point x="610" y="611" type="curve" smooth="yes"/>
      <point x="198" y="72" type="line" smooth="yes"/>
      <point x="184" y="58"/>
      <point x="221" y="58"/>
      <point x="227" y="58" type="curve" smooth="yes"/>
      <point x="457" y="58" type="line" smooth="yes"/>
      <point x="565" y="58"/>
      <point x="581" y="98"/>
      <point x="591" y="196" type="curve"/>
      <point x="600" y="208"/>
      <point x="637" y="209"/>
      <point x="637" y="196" type="curve" smooth="yes"/>
      <point x="635" y="147"/>
      <point x="628" y="60"/>
      <point x="623" y="14" type="curve" smooth="yes"/>
      <point x="621" y="2"/>
      <point x="595" y="-2"/>
      <point x="588" y="-2" type="curve" smooth="yes"/>
      <point x="518" y="-2"/>
      <point x="388" y="-3"/>
      <point x="276" y="-3" type="curve" smooth="yes"/>
      <point x="167" y="-3"/>
      <point x="73" y="-2"/>
      <point x="61" y="-2" type="curve" smooth="yes"/>
      <point x="50" y="-2"/>
      <point x="34" y="3"/>
      <point x="36" y="21" type="curve" smooth="yes"/>
      <point x="36" y="26"/>
      <point x="39" y="34"/>
      <point x="42" y="38" type="curve" smooth="yes"/>
      <point x="449" y="575" type="line" smooth="yes"/>
      <point x="454" y="581"/>
      <point x="451" y="592"/>
      <point x="448" y="592" type="curve" smooth="yes"/>
      <point x="246" y="592" type="line" smooth="yes"/>
      <point x="151" y="592"/>
      <point x="140" y="587"/>
      <point x="128" y="492" type="curve"/>
    </contour>
  </outline>
</glyph>
<glyph name="florin" format="1">
  <advance width="523"/>
  <unicode hex="0192"/>
  <outline>
    <contour>
      <point x="481" y="615" type="curve" smooth="yes"/>
      <point x="461" y="615"/>
      <point x="439" y="632"/>
      <point x="439" y="655" type="curve" smooth="yes"/>
      <point x="439" y="662"/>
      <point x="441" y="671"/>
      <point x="445" y="678" type="curve" smooth="yes"/>
      <point x="448" y="684"/>
      <point x="449" y="686"/>
      <point x="449" y="687" type="curve" smooth="yes"/>
      <point x="449" y="688"/>
      <point x="447" y="689"/>
      <point x="442" y="689" type="curve" smooth="yes"/>
      <point x="419" y="689"/>
      <point x="407" y="677"/>
      <point x="392" y="593" type="curve" smooth="yes"/>
      <point x="389" y="579"/>
      <point x="377" y="518"/>
      <point x="372" y="483" type="curve" smooth="yes"/>
      <point x="371" y="480"/>
      <point x="370" y="469"/>
      <point x="375" y="469" type="curve" smooth="yes"/>
      <point x="439" y="469" type="line" smooth="yes"/>
      <point x="449" y="469"/>
      <point x="458" y="464"/>
      <point x="458" y="455" type="curve" smooth="yes"/>
      <point x="451" y="426" type="line" smooth="yes"/>
      <point x="449" y="415"/>
      <point x="438" y="414"/>
      <point x="429" y="413" type="curve" smooth="yes"/>
      <point x="364" y="413" type="line" smooth="yes"/>
      <point x="362" y="413"/>
      <point x="358" y="409"/>
      <point x="357" y="406" type="curve" smooth="yes"/>
      <point x="347" y="343"/>
      <point x="342" y="323"/>
      <point x="318" y="226" type="curve" smooth="yes"/>
      <point x="301" y="156"/>
      <point x="283" y="90"/>
      <point x="266" y="27" type="curve" smooth="yes"/>
      <point x="222" y="-136"/>
      <point x="158" y="-231"/>
      <point x="71" y="-231" type="curve" smooth="yes"/>
      <point x="32" y="-231"/>
      <point x="-2" y="-205"/>
      <point x="-2" y="-165" type="curve" smooth="yes"/>
      <point x="-2" y="-135"/>
      <point x="19" y="-108"/>
      <point x="49" y="-108" type="curve" smooth="yes"/>
      <point x="72" y="-108"/>
      <point x="92" y="-126"/>
      <point x="92" y="-149" type="curve" smooth="yes"/>
      <point x="92" y="-163"/>
      <point x="81" y="-175"/>
      <point x="81" y="-179" type="curve" smooth="yes"/>
      <point x="81" y="-179"/>
      <point x="81" y="-178"/>
      <point x="84" y="-178" type="curve" smooth="yes"/>
      <point x="108" y="-178"/>
      <point x="134" y="-138"/>
      <point x="156" y="-32" type="curve" smooth="yes"/>
      <point x="200" y="188" type="line"/>
      <point x="248" y="390" type="line" smooth="yes"/>
      <point x="250" y="396"/>
      <point x="252" y="412"/>
      <point x="248" y="413" type="curve" smooth="yes"/>
      <point x="181" y="413" type="line" smooth="yes"/>
      <point x="170" y="414"/>
      <point x="165" y="422"/>
      <point x="168" y="429" type="curve" smooth="yes"/>
      <point x="175" y="458" type="line" smooth="yes"/>
      <point x="179" y="468"/>
      <point x="186" y="470"/>
      <point x="195" y="471" type="curve" smooth="yes"/>
      <point x="261" y="474"/>
      <point x="263" y="476"/>
      <point x="290" y="555" type="curve" smooth="yes"/>
      <point x="327" y="663"/>
      <point x="352" y="704"/>
      <point x="403" y="727" type="curve" smooth="yes"/>
      <point x="416" y="733"/>
      <point x="431" y="736"/>
      <point x="445" y="736" type="curve" smooth="yes"/>
      <point x="490" y="736"/>
      <point x="527" y="708"/>
      <point x="527" y="665" type="curve" smooth="yes"/>
      <point x="527" y="638"/>
      <point x="508" y="615"/>
    </contour>
  </outline>
</glyph>
<glyph name="circumflex" format="1">
  <advance width="349"/>
  <unicode hex="02C6"/>
  <outline>
    <contour>
      <point x="310" y="473" type="curve" smooth="yes"/>
      <point x="303" y="471"/>
      <point x="291" y="472"/>
      <point x="286" y="476" type="curve" smooth="yes"/>
      <point x="172" y="571" type="line"/>
      <point x="65" y="476" type="line" smooth="yes"/>
      <point x="53" y="466"/>
      <point x="26" y="475"/>
      <point x="34" y="488" type="curve" smooth="yes"/>
      <point x="119" y="635" type="line" smooth="yes"/>
      <point x="123" y="641"/>
      <point x="129" y="645"/>
      <point x="135" y="647" type="curve" smooth="yes"/>
      <point x="143" y="648"/>
      <point x="196" y="649"/>
      <point x="209" y="648" type="curve" smooth="yes"/>
      <point x="220" y="647"/>
      <point x="224" y="645"/>
      <point x="230" y="636" type="curve" smooth="yes"/>
      <point x="314" y="493" type="line" smooth="yes"/>
      <point x="317" y="486"/>
      <point x="321" y="476"/>
    </contour>
  </outline>
</glyph>
<glyph name="caron" format="1">
  <advance width="349"/>
  <unicode hex="02C7"/>
  <outline>
    <contour>
      <point x="231" y="488" type="line" smooth="yes"/>
      <point x="226" y="482"/>
      <point x="222" y="481"/>
      <point x="214" y="481" type="curve" smooth="yes"/>
      <point x="140" y="481" type="line" smooth="yes"/>
      <point x="130" y="481"/>
      <point x="120" y="484"/>
      <point x="118" y="492" type="curve" smooth="yes"/>
      <point x="26" y="649" type="line" smooth="yes"/>
      <point x="22" y="655"/>
      <point x="27" y="660"/>
      <point x="30" y="662" type="curve" smooth="yes"/>
      <point x="32" y="663"/>
      <point x="36" y="663"/>
      <point x="40" y="663" type="curve" smooth="yes"/>
      <point x="47" y="663"/>
      <point x="55" y="661"/>
      <point x="59" y="657" type="curve" smooth="yes"/>
      <point x="185" y="561" type="line"/>
      <point x="291" y="657" type="line" smooth="yes"/>
      <point x="295" y="660"/>
      <point x="303" y="662"/>
      <point x="309" y="662" type="curve" smooth="yes"/>
      <point x="318" y="662"/>
      <point x="326" y="657"/>
      <point x="326" y="651" type="curve" smooth="yes"/>
    </contour>
  </outline>
</glyph>
<glyph name="quotedblbase" format="1">
  <advance width="473"/>
  <unicode hex="201E"/>
  <outline>
    <contour>
      <point x="300" y="-147" type="curve" smooth="yes"/>
      <point x="285" y="-152"/>
      <point x="275" y="-119"/>
      <point x="286" y="-112" type="curve" smooth="yes"/>
      <point x="332" y="-86"/>
      <point x="353" y="-57"/>
      <point x="353" y="-30" type="curve" smooth="yes"/>
      <point x="353" y="-24"/>
      <point x="353" y="-22"/>
      <point x="351" y="-22" type="curve" smooth="yes"/>
      <point x="350" y="-22" type="line"/>
      <point x="338" y="-26"/>
      <point x="332" y="-25"/>
      <point x="327" y="-25" type="curve" smooth="yes"/>
      <point x="299" y="-25"/>
      <point x="277" y="-2"/>
      <point x="277" y="26" type="curve" smooth="yes"/>
      <point x="277" y="58"/>
      <point x="305" y="81"/>
      <point x="337" y="81" type="curve" smooth="yes"/>
      <point x="380" y="81"/>
      <point x="411" y="43"/>
      <point x="411" y="-4" type="curve" smooth="yes"/>
      <point x="411" y="-65"/>
      <point x="365" y="-122"/>
    </contour>
    <contour>
      <point x="95" y="-147" type="curve" smooth="yes"/>
      <point x="82" y="-152"/>
      <point x="62" y="-120"/>
      <point x="81" y="-112" type="curve" smooth="yes"/>
      <point x="127" y="-85"/>
      <point x="148" y="-57"/>
      <point x="148" y="-30" type="curve" smooth="yes"/>
      <point x="148" y="-24"/>
      <point x="147" y="-22"/>
      <point x="145" y="-22" type="curve" smooth="yes"/>
      <point x="141" y="-22"/>
      <point x="139" y="-25"/>
      <point x="135" y="-25" type="curve" smooth="yes"/>
      <point x="131" y="-26"/>
      <point x="126" y="-26"/>
      <point x="122" y="-26" type="curve" smooth="yes"/>
      <point x="93" y="-26"/>
      <point x="72" y="-2"/>
      <point x="72" y="26" type="curve" smooth="yes"/>
      <point x="72" y="58"/>
      <point x="100" y="81"/>
      <point x="132" y="81" type="curve" smooth="yes"/>
      <point x="175" y="81"/>
      <point x="206" y="43"/>
      <point x="206" y="-4" type="curve" smooth="yes"/>
      <point x="206" y="-65"/>
      <point x="160" y="-121"/>
    </contour>
  </outline>
</glyph>
<glyph name="trademark" format="1">
  <advance width="1025"/>
  <unicode hex="2122"/>
  <outline>
    <contour>
      <point x="736" y="448" type="curve" smooth="yes"/>
      <point x="846" y="682" type="line" smooth="yes"/>
      <point x="853" y="696"/>
      <point x="857" y="701"/>
      <point x="866" y="701" type="curve" smooth="yes"/>
      <point x="901" y="700"/>
      <point x="955" y="701"/>
      <point x="987" y="701" type="curve" smooth="yes"/>
      <point x="1002" y="701"/>
      <point x="1012" y="699"/>
      <point x="1012" y="681" type="curve" smooth="yes"/>
      <point x="1012" y="672"/>
      <point x="1012" y="662"/>
      <point x="1001" y="661" type="curve" smooth="yes"/>
      <point x="998" y="660"/>
      <point x="994" y="660"/>
      <point x="991" y="660" type="curve" smooth="yes"/>
      <point x="961" y="659"/>
      <point x="957" y="653"/>
      <point x="957" y="604" type="curve" smooth="yes"/>
      <point x="957" y="372" type="line" smooth="yes"/>
      <point x="957" y="324"/>
      <point x="959" y="320"/>
      <point x="993" y="318" type="curve" smooth="yes"/>
      <point x="996" y="317"/>
      <point x="998" y="317"/>
      <point x="1001" y="317" type="curve" smooth="yes"/>
      <point x="1013" y="317"/>
      <point x="1012" y="305"/>
      <point x="1012" y="296" type="curve" smooth="yes"/>
      <point x="1012" y="283"/>
      <point x="1007" y="278"/>
      <point x="991" y="278" type="curve" smooth="yes"/>
      <point x="948" y="278"/>
      <point x="862" y="280"/>
      <point x="820" y="278" type="curve" smooth="yes"/>
      <point x="801" y="277"/>
      <point x="790" y="279"/>
      <point x="790" y="293" type="curve" smooth="yes"/>
      <point x="790" y="308" type="line" smooth="yes"/>
      <point x="790" y="317"/>
      <point x="796" y="318"/>
      <point x="804" y="318" type="curve" smooth="yes"/>
      <point x="807" y="318"/>
      <point x="810" y="317"/>
      <point x="814" y="318" type="curve" smooth="yes"/>
      <point x="847" y="320"/>
      <point x="851" y="327"/>
      <point x="851" y="371" type="curve" smooth="yes"/>
      <point x="851" y="539" type="line" smooth="yes"/>
      <point x="851" y="553"/>
      <point x="848" y="564"/>
      <point x="843" y="554" type="curve" smooth="yes"/>
      <point x="721" y="293" type="line" smooth="yes"/>
      <point x="716" y="281"/>
      <point x="711" y="278"/>
      <point x="704" y="278" type="curve" smooth="yes"/>
      <point x="690" y="278" type="line" smooth="yes"/>
      <point x="682" y="278"/>
      <point x="685" y="276"/>
      <point x="679" y="288" type="curve" smooth="yes"/>
      <point x="555" y="553" type="line" smooth="yes"/>
      <point x="548" y="567"/>
      <point x="548" y="550"/>
      <point x="548" y="550" type="curve"/>
      <point x="548" y="372" type="line" smooth="yes"/>
      <point x="548" y="319"/>
      <point x="553" y="317"/>
      <point x="584" y="317" type="curve" smooth="yes"/>
      <point x="599" y="317" type="line" smooth="yes"/>
      <point x="606" y="317"/>
      <point x="613" y="315"/>
      <point x="613" y="307" type="curve" smooth="yes"/>
      <point x="613" y="298"/>
      <point x="613" y="279"/>
      <point x="604" y="276" type="curve" smooth="yes"/>
      <point x="595" y="276" type="line"/>
      <point x="577" y="282"/>
      <point x="481" y="279"/>
      <point x="462" y="278" type="curve" smooth="yes"/>
      <point x="453" y="276"/>
      <point x="437" y="274"/>
      <point x="437" y="288" type="curve" smooth="yes"/>
      <point x="437" y="299" type="line" smooth="yes"/>
      <point x="437" y="314"/>
      <point x="447" y="317"/>
      <point x="456" y="317" type="curve" smooth="yes"/>
      <point x="490" y="318"/>
      <point x="494" y="323"/>
      <point x="494" y="371" type="curve" smooth="yes"/>
      <point x="494" y="603" type="line" smooth="yes"/>
      <point x="494" y="656"/>
      <point x="491" y="659"/>
      <point x="458" y="660" type="curve" smooth="yes"/>
      <point x="447" y="660"/>
      <point x="442" y="662"/>
      <point x="439" y="666" type="curve" smooth="yes"/>
      <point x="437" y="674"/>
      <point x="437" y="673"/>
      <point x="437" y="683" type="curve" smooth="yes"/>
      <point x="437" y="699"/>
      <point x="444" y="701"/>
      <point x="456" y="701" type="curve" smooth="yes"/>
      <point x="486" y="700"/>
      <point x="554" y="699"/>
      <point x="585" y="700" type="curve" smooth="yes"/>
      <point x="598" y="701"/>
      <point x="604" y="692"/>
      <point x="608" y="683" type="curve" smooth="yes"/>
      <point x="726" y="439" type="line" smooth="yes"/>
      <point x="727" y="434"/>
      <point x="734" y="444"/>
    </contour>
    <contour>
      <point x="321" y="316" type="curve" smooth="yes"/>
      <point x="328" y="313"/>
      <point x="329" y="289"/>
      <point x="323" y="282" type="curve" smooth="yes"/>
      <point x="319" y="276"/>
      <point x="308" y="278"/>
      <point x="302" y="278" type="curve" smooth="yes"/>
      <point x="253" y="280"/>
      <point x="175" y="279"/>
      <point x="142" y="278" type="curve" smooth="yes"/>
      <point x="121" y="278"/>
      <point x="116" y="280"/>
      <point x="116" y="298" type="curve" smooth="yes"/>
      <point x="116" y="307"/>
      <point x="115" y="314"/>
      <point x="126" y="317" type="curve" smooth="yes"/>
      <point x="128" y="317"/>
      <point x="129" y="317"/>
      <point x="132" y="318" type="curve" smooth="yes"/>
      <point x="164" y="322"/>
      <point x="166" y="325"/>
      <point x="166" y="371" type="curve" smooth="yes"/>
      <point x="166" y="636" type="line" smooth="yes"/>
      <point x="166" y="648"/>
      <point x="156" y="649"/>
      <point x="139" y="649" type="curve" smooth="yes"/>
      <point x="82" y="649"/>
      <point x="64" y="635"/>
      <point x="54" y="579" type="curve"/>
      <point x="32" y="579" type="line" smooth="yes"/>
      <point x="14" y="579"/>
      <point x="15" y="588"/>
      <point x="17" y="608" type="curve" smooth="yes"/>
      <point x="26" y="680" type="line" smooth="yes"/>
      <point x="28" y="698"/>
      <point x="35" y="701"/>
      <point x="52" y="701" type="curve" smooth="yes"/>
      <point x="130" y="699"/>
      <point x="296" y="699"/>
      <point x="384" y="701" type="curve" smooth="yes"/>
      <point x="405" y="702"/>
      <point x="413" y="699"/>
      <point x="416" y="676" type="curve" smooth="yes"/>
      <point x="424" y="603" type="line" smooth="yes"/>
      <point x="424" y="597"/>
      <point x="426" y="591"/>
      <point x="423" y="585" type="curve" smooth="yes"/>
      <point x="421" y="581"/>
      <point x="416" y="579"/>
      <point x="406" y="579" type="curve" smooth="yes"/>
      <point x="387" y="579" type="line"/>
      <point x="379" y="635"/>
      <point x="360" y="649"/>
      <point x="299" y="649" type="curve" smooth="yes"/>
      <point x="285" y="649"/>
      <point x="273" y="651"/>
      <point x="273" y="635" type="curve" smooth="yes"/>
      <point x="273" y="372" type="line" smooth="yes"/>
      <point x="273" y="326"/>
      <point x="276" y="321"/>
      <point x="313" y="318" type="curve" smooth="yes"/>
      <point x="316" y="318"/>
      <point x="318" y="318"/>
    </contour>
  </outline>
</glyph>
<glyph name="f_i" format="1">
  <advance width="559"/>
  <unicode hex="FB01"/>
  <outline>
    <contour>
      <point x="511" y="-4" type="curve"/>
      <point x="480" y="-2"/>
      <point x="451" y="-2"/>
      <point x="417" y="-2" type="curve" smooth="yes"/>
      <point x="388" y="-2"/>
      <point x="358" y="0"/>
      <point x="330" y="-3" type="curve" smooth="yes"/>
      <point x="321" y="-3"/>
      <point x="317" y="0"/>
      <point x="314" y="9" type="curve" smooth="yes"/>
      <point x="306" y="36"/>
      <point x="325" y="36"/>
      <point x="343" y="38" type="curve" smooth="yes"/>
      <point x="373" y="42"/>
      <point x="372" y="45"/>
      <point x="372" y="117" type="curve" smooth="yes"/>
      <point x="372" y="287" type="line" smooth="yes"/>
      <point x="372" y="342"/>
      <point x="369" y="344"/>
      <point x="332" y="345" type="curve" smooth="yes"/>
      <point x="303" y="345"/>
      <point x="235" y="346"/>
      <point x="207" y="345" type="curve" smooth="yes"/>
      <point x="195" y="344"/>
      <point x="191" y="344"/>
      <point x="191" y="322" type="curve" smooth="yes"/>
      <point x="191" y="117" type="line" smooth="yes"/>
      <point x="191" y="44"/>
      <point x="194" y="41"/>
      <point x="222" y="38" type="curve" smooth="yes"/>
      <point x="251" y="35" type="line" smooth="yes"/>
      <point x="267" y="34"/>
      <point x="263" y="0"/>
      <point x="249" y="-4" type="curve"/>
      <point x="208" y="-2"/>
      <point x="179" y="-1"/>
      <point x="145" y="-1" type="curve" smooth="yes"/>
      <point x="113" y="-1"/>
      <point x="88" y="-2"/>
      <point x="60" y="-4" type="curve" smooth="yes"/>
      <point x="52" y="-4"/>
      <point x="45" y="-4"/>
      <point x="40" y="7" type="curve" smooth="yes"/>
      <point x="37" y="15"/>
      <point x="37" y="29"/>
      <point x="50" y="35" type="curve"/>
      <point x="73" y="38" type="line" smooth="yes"/>
      <point x="102" y="42"/>
      <point x="104" y="45"/>
      <point x="104" y="117" type="curve" smooth="yes"/>
      <point x="104" y="322" type="line" smooth="yes"/>
      <point x="104" y="338"/>
      <point x="101" y="342"/>
      <point x="89" y="343" type="curve" smooth="yes"/>
      <point x="54" y="346" type="line"/>
      <point x="45" y="351"/>
      <point x="37" y="370"/>
      <point x="50" y="378" type="curve" smooth="yes"/>
      <point x="56" y="383"/>
      <point x="72" y="387"/>
      <point x="80" y="391" type="curve" smooth="yes"/>
      <point x="89" y="394"/>
      <point x="104" y="400"/>
      <point x="104" y="411" type="curve" smooth="yes"/>
      <point x="104" y="468"/>
      <point x="112" y="525"/>
      <point x="134" y="579" type="curve" smooth="yes"/>
      <point x="156" y="630"/>
      <point x="216" y="715"/>
      <point x="329" y="715" type="curve" smooth="yes"/>
      <point x="396" y="715"/>
      <point x="456" y="679"/>
      <point x="456" y="632" type="curve" smooth="yes"/>
      <point x="456" y="597"/>
      <point x="426" y="585"/>
      <point x="410" y="585" type="curve" smooth="yes"/>
      <point x="394" y="585"/>
      <point x="384" y="593"/>
      <point x="379" y="602" type="curve" smooth="yes"/>
      <point x="351" y="649"/>
      <point x="316" y="665"/>
      <point x="294" y="665" type="curve" smooth="yes"/>
      <point x="224" y="665"/>
      <point x="191" y="589"/>
      <point x="191" y="436" type="curve" smooth="yes"/>
      <point x="191" y="429"/>
      <point x="191" y="418"/>
      <point x="194" y="412" type="curve" smooth="yes"/>
      <point x="195" y="407"/>
      <point x="199" y="403"/>
      <point x="212" y="403" type="curve" smooth="yes"/>
      <point x="243" y="402"/>
      <point x="295" y="402"/>
      <point x="320" y="403" type="curve" smooth="yes"/>
      <point x="356" y="404"/>
      <point x="406" y="405"/>
      <point x="433" y="410" type="curve"/>
      <point x="439" y="413" type="line" smooth="yes"/>
      <point x="449" y="416"/>
      <point x="457" y="415"/>
      <point x="463" y="405" type="curve"/>
      <point x="461" y="368"/>
      <point x="459" y="320"/>
      <point x="459" y="280" type="curve" smooth="yes"/>
      <point x="459" y="117" type="line" smooth="yes"/>
      <point x="459" y="45"/>
      <point x="462" y="42"/>
      <point x="491" y="38" type="curve" smooth="yes"/>
      <point x="511" y="35" type="line" smooth="yes"/>
      <point x="530" y="33"/>
      <point x="524" y="2"/>
    </contour>
  </outline>
</glyph>
